<svg xmlns="http://www.w3.org/2000/svg" viewBox="0 0 160 120" role="img" aria-labelledby="title desc">
  <title id="title">Clean Streets logo</title>
  <desc id="desc">Rounded rectangle with heart-shaped street sweeper icon.</desc>
  <defs>
    <linearGradient id="brandGradient" x1="0%" y1="0%" x2="100%" y2="100%">
      <stop offset="0%" stop-color="#0b5d5c" />
      <stop offset="100%" stop-color="#2ec4b6" />
    </linearGradient>
  </defs>
  <rect x="6" y="6" width="148" height="108" rx="20" fill="url(#brandGradient)" />
  <path d="M45 46c0-13 10-22 25-22s25 9 25 22c0 18-25 38-25 38S45 64 45 46z" fill="#f9f7f4" />
  <path d="M74 38h12v42a6 6 0 0 1-6 6h0a6 6 0 0 1-6-6z" fill="#f7b500" />
  <path d="M62 55h36l-4 12H66z" fill="#073b4c" opacity="0.7" />
  <path d="M56 30h48" stroke="#f9f7f4" stroke-width="6" stroke-linecap="round" />
  <path d="M64 24h32" stroke="#f7b500" stroke-width="4" stroke-linecap="round" />
</svg>
